<?xml version="1.0" encoding="UTF-8" standalone="no"?>
<svg
   width="144.13416mm"
   height="123.21549mm"
   viewBox="0 0 144.13415 123.21549"
   version="1.1"
   id="svg5"
   xml:space="preserve"
   xmlns="http://www.w3.org/2000/svg"
   xmlns:svg="http://www.w3.org/2000/svg"><defs
     id="defs2" /><g
     id="layer1"
     transform="translate(-28.87964,-79.545675)"><g
       aria-label="404"
       transform="scale(1.0195762,0.98079967)"
       id="text636"
       style="font-size:26.1009px;fill:#ffffff;stroke:#ff0000;stroke-width:9.57719" /><path
       id="path1112"
       style="color:#000000;fill:#000000;-inkscape-stroke:none"
       d="m 33.567207,104.14628 -0.04297,1.16406 c 2.483175,0.0901 4.947711,0.76226 7.132813,1.94531 1.326988,0.71846 2.555224,1.62334 3.632812,2.67969 l 0.814453,-0.83203 c -1.155517,-1.13275 -2.469623,-2.10264 -3.892578,-2.87305 -2.344884,-1.26956 -4.979777,-1.98728 -7.64453,-2.08398 z m 5.240234,-17.361333 -0.941406,0.685547 11.197266,15.361326 0.941406,-0.68554 z m 20.900391,0.40625 c -1.639854,1.503508 -2.889653,3.420863 -3.605469,5.527344 -0.764637,2.250151 -0.911977,4.698002 -0.421875,7.023437 l 1.140625,-0.240234 c -0.446239,-2.117314 -0.311438,-4.361389 0.384766,-6.410157 0.651919,-1.918446 1.795589,-3.671718 3.289062,-5.041015 z m 39.534554,18.387453 -9.13571,-12.360075 m 29.825394,13.210945 10.77028,-10.770278 m 0.0775,31.315948 -62.260804,3.95324 -3.458704,43.38495 66.015608,0.49403 z m -46.122254,16.35714 h 3.066479 v 11.62513 h 2.364714 v 3.08766 h -2.364714 v 3.68712 h -3.534151 v -3.68712 h -7.796423 v -3.07526 z m 13.344922,0 c 1.845156,0 3.287342,0.63348 4.326872,1.90014 1.23876,1.49998 1.85828,3.98763 1.85828,7.46259 0,3.46664 -0.62377,5.95835 -1.8712,7.475 -1.03087,1.24999 -2.468796,1.87482 -4.313952,1.87482 -1.853819,0 -3.348116,-0.68335 -4.482931,-2.05 -1.134814,-1.37499 -1.702221,-3.82091 -1.702221,-7.33754 0,-3.44997 0.623773,-5.93303 1.871203,-7.44968 1.030862,-1.24998 2.468793,-1.87533 4.313949,-1.87533 z m 16.255342,0 h 3.06648 v 11.62513 h 2.36523 v 3.08766 h -2.36523 v 3.68712 h -3.53416 v -3.68712 h -7.79642 v -3.07526 z m -16.255342,2.91248 c -0.441798,0 -0.835849,0.1379 -1.182357,0.41289 -0.346509,0.26667 -0.615057,0.75006 -0.805636,1.45005 -0.251218,0.90832 -0.377238,2.43734 -0.377238,4.58731 0,2.14998 0.112734,3.62913 0.337964,4.43746 0.225231,0.79999 0.507064,1.33324 0.84491,1.5999 0.346508,0.26667 0.740559,0.39998 1.182357,0.39998 0.441798,0 0.835848,-0.13331 1.182357,-0.39998 0.346508,-0.275 0.615055,-0.76245 0.805635,-1.46244 0.25122,-0.9 0.37672,-2.42494 0.37672,-4.57492 0,-2.14997 -0.11273,-3.62506 -0.33796,-4.42505 -0.225233,-0.80832 -0.510807,-1.34564 -0.857315,-1.61231 -0.337845,-0.27499 -0.727639,-0.41289 -1.169437,-0.41289 z m -13.812594,2.44998 -4.379061,6.26267 h 4.379061 z m 29.600256,0 -4.37906,6.26267 h 4.37906 z m 53.47429,-38.54266 -113.972654,7.23633 -0.03906,0.50391 -6.320313,79.26367 120.876947,0.9043 z m -1.1582,1.24219 0.5293,85.49219 -118.443363,-0.88672 6.179687,-77.51172 z M 86.39134,82.451805 c -0.50891,0.0041 -1.016573,0.0713 -1.508435,0.203088 -1.573957,0.421731 -2.960159,1.502706 -3.752742,2.926437 -0.792584,1.42373 -0.981302,3.170976 -0.510564,4.730977 0.520758,1.725761 1.847307,3.189831 3.513481,3.877799 1.666175,0.68797 3.638904,0.586385 5.225521,-0.269234 0.128771,-0.06944 0.255004,-0.144025 0.378271,-0.222725 l 8.78396,11.885583 c -2.339138,2.6259 -3.823455,6.02175 -4.070035,9.53378 l 31.168643,-1.83606 c -0.48828,-2.92079 -1.8626,-5.67264 -3.84628,-7.86877 l 8.82478,-8.82427 c 0.55327,0.540843 1.2059,0.979972 1.92133,1.275374 1.66617,0.687968 3.63891,0.585867 5.22552,-0.269751 1.16984,-0.630862 2.12316,-1.654972 2.66858,-2.867008 0.54542,-1.212038 0.67988,-2.604527 0.3762,-3.898471 -0.37231,-1.586373 -1.40933,-3.005431 -2.80758,-3.842142 -1.39825,-0.836712 -3.13945,-1.080088 -4.71341,-0.658358 -1.57395,0.421731 -2.96015,1.502707 -3.75274,2.926436 -0.79258,1.423731 -0.98079,3.171495 -0.51005,4.731494 0.1843,0.610748 0.46963,1.188623 0.83509,1.711007 l -8.87956,8.879559 c -0.94139,-0.89914 -1.99381,-1.6813 -3.13417,-2.312 -2.49417,-1.37945 -5.37253,-2.05209 -8.22017,-1.93115 -2.84766,0.12094 -5.65615,1.03401 -8.03569,2.60294 -0.79863,0.52657 -1.54396,1.12994 -2.230353,1.79421 L 90.654646,92.980361 c 0.575814,-0.546037 1.046836,-1.202741 1.372526,-1.926497 0.545415,-1.212037 0.679883,-2.604527 0.376204,-3.89847 -0.372309,-1.586375 -1.409329,-3.005948 -2.80758,-3.84266 -0.961298,-0.57524 -2.084853,-0.869993 -3.204456,-0.860929 z" /></g>
       </svg>
